<svg width="800" height="800" viewBox="0 0 800 800" fill="none" xmlns="http://www.w3.org/2000/svg">
    <path
        d="M273.64 157.367L307.405 185.504C307.755 185.796 307.864 186.288 307.668 186.7L273.904 257.981C273.447 258.945 272 258.62 272 257.553V158.135C272 157.287 272.989 156.824 273.64 157.367Z"
        fill="{ear_left_color}" />
    <path
        d="M307.405 185.504L306.765 186.272L306.765 186.272L307.405 185.504ZM273.64 157.367L274.28 156.599L274.28 156.599L273.64 157.367ZM273.904 257.981L273 257.553L273 257.553L273.904 257.981ZM307.668 186.7L306.765 186.272L306.765 186.272L307.668 186.7ZM306.765 186.272L273 158.135L274.28 156.599L308.045 184.736L306.765 186.272ZM273 158.135V257.553H271V158.135H273ZM273 257.553L306.765 186.272L308.572 187.128L274.807 258.409L273 257.553ZM273 257.553L273 257.553L274.807 258.409C273.894 260.337 271 259.686 271 257.553H273ZM273 158.135L273 158.135H271C271 156.439 272.978 155.513 274.28 156.599L273 158.135ZM308.045 184.736C308.746 185.32 308.963 186.304 308.572 187.128L306.765 186.272L306.765 186.272L308.045 184.736Z"
        fill="{stroke_color}" />
    <path
        d="M530.36 157.367L496.595 185.504C496.245 185.796 496.136 186.288 496.332 186.7L530.096 257.981C530.553 258.945 532 258.62 532 257.553V158.135C532 157.287 531.011 156.824 530.36 157.367Z"
        fill="{ear_right_color}" />
    <path
        d="M496.595 185.504L497.235 186.272L497.235 186.272L496.595 185.504ZM530.36 157.367L529.72 156.599L529.72 156.599L530.36 157.367ZM496.332 186.7L497.235 186.272L497.235 186.272L496.332 186.7ZM530.096 257.981L531 257.553L531 257.553L530.096 257.981ZM497.235 186.272L531 158.135L529.72 156.599L495.955 184.736L497.235 186.272ZM531 158.135V257.553H533V158.135H531ZM495.428 187.128L529.193 258.409L531 257.553L497.235 186.272L495.428 187.128ZM531 257.553L531 257.553L529.193 258.409C530.106 260.337 533 259.686 533 257.553H531ZM531 158.135L531 158.135H533C533 156.439 531.022 155.513 529.72 156.599L531 158.135ZM495.955 184.736C495.254 185.32 495.037 186.304 495.428 187.128L497.235 186.272L497.235 186.272L495.955 184.736Z"
        fill="{stroke_color}" />
</svg>